<svg xmlns="http://www.w3.org/2000/svg" xmlns:xlink="http://www.w3.org/1999/xlink" version="1.1" id="Layer_1" x="0px" y="0px" viewBox="0 0 512.003 512.003" style="enable-background:new 0 0 512.003 512.003;" xml:space="preserve">
<path style="fill: #ffc000;" d="M360.773,20.807c-38.114,0-75.772,14.353-104.769,39.229c-0.002-0.002-0.003-0.002-0.005-0.003  c-29.001-24.878-66.657-39.225-104.772-39.225C66.429,20.807,0,87.235,0,172.036c0,102.508,71.37,165.162,179.402,260.002  c9.234,8.107,18.763,16.471,28.57,25.143c0.067,0.061,0.135,0.119,0.203,0.178l32.617,28.174c4.367,3.774,9.788,5.66,15.21,5.663  c0.003,0,0.006,0,0.008,0c5.424,0,10.847-1.889,15.219-5.664l32.611-28.174c0.068-0.059,0.135-0.118,0.203-0.177  c64.566-57.104,112.978-100.819,148-143.452c40.907-49.796,59.961-94.82,59.961-141.692C512,87.235,445.573,20.807,360.773,20.807z"/>
<path style="fill: #366092;" d="M151.228,20.807C66.429,20.807,0,87.235,0,172.036c0,102.508,71.37,165.162,179.402,260.002  c9.234,8.107,18.763,16.471,28.57,25.143c0.067,0.061,0.135,0.119,0.203,0.178l32.617,28.174c4.367,3.774,9.788,5.661,15.21,5.663  V60.033C226.999,35.155,189.343,20.807,151.228,20.807z"/>
<g>
</g>
<g>
</g>
<g>
</g>
<g>
</g>
<g>
</g>
<g>
</g>
<g>
</g>
<g>
</g>
<g>
</g>
<g>
</g>
<g>
</g>
<g>
</g>
<g>
</g>
<g>
</g>
<g>
</g>
</svg>